HIERARCHY
ROOT Hips
{
	OFFSET 0.000000 0.000000 0.000000
	CHANNELS 6 Xposition Yposition Zposition Zrotation Yrotation Xrotation 
	JOINT LeftUpLeg_virtual
	{
		OFFSET 0.000000 0.000000 0.000000
		CHANNELS 3 Zrotation Yrotation Xrotation
		JOINT LeftUpLeg
		{
			OFFSET 10.205400 -3.823500 0.155100
			CHANNELS 3 Zrotation Yrotation Xrotation
			JOINT LeftLeg
			{
				OFFSET 0.708757 -12.982077 0.567790
				CHANNELS 3 Zrotation Yrotation Xrotation
				JOINT LeftFoot
				{
					OFFSET -0.708756 -10.717838 -2.184338
					CHANNELS 3 Zrotation Yrotation Xrotation
					JOINT LeftToeBase
					{
						OFFSET 0.108149 -7.191104 7.560241
						CHANNELS 3 Zrotation Yrotation Xrotation
						End Site
						{
							OFFSET 0.000000 0.000000 0.000000
						}
					}
				}
			}
		}
	}
	JOINT RightUpLeg_virtual
	{
		OFFSET 0.000000 0.000000 0.000000
		CHANNELS 3 Zrotation Yrotation Xrotation
		JOINT RightUpLeg
		{
			OFFSET -10.205400 -3.823500 0.005500
			CHANNELS 3 Zrotation Yrotation Xrotation
			JOINT RightLeg
			{
				OFFSET -0.708756 -12.982134 0.610632
				CHANNELS 3 Zrotation Yrotation Xrotation
				JOINT RightFoot
				{
					OFFSET 0.708754 -10.717769 -1.945823
					CHANNELS 3 Zrotation Yrotation Xrotation
					JOINT RightToeBase
					{
						OFFSET -0.108140 -7.191069 7.372968
						CHANNELS 3 Zrotation Yrotation Xrotation
						End Site
						{
							OFFSET 0.000000 0.000000 0.000000
						}
					}
				}
			}
		}
	}
	JOINT Spine_virtual
	{
		OFFSET 0.000000 0.000000 0.000000
		CHANNELS 3 Zrotation Yrotation Xrotation
		JOINT Spine
		{
			OFFSET 0.000000 6.876099 0.125700
			CHANNELS 3 Zrotation Yrotation Xrotation
			JOINT Spine1
			{
				OFFSET 0.000000 8.022060 0.146608
				CHANNELS 3 Zrotation Yrotation Xrotation
				JOINT Spine2
				{
					OFFSET 0.000000 9.168068 0.167552
					CHANNELS 3 Zrotation Yrotation Xrotation
					JOINT Neck_virtual
					{
						OFFSET 0.000000 0.000000 0.000000
						CHANNELS 3 Zrotation Yrotation Xrotation
						JOINT Neck
						{
							OFFSET 0.000000 10.314075 0.188496
							CHANNELS 3 Zrotation Yrotation Xrotation
							JOINT Head
							{
								OFFSET 0.000000 7.643700 -2.377400
								CHANNELS 3 Zrotation Yrotation Xrotation
								End Site
								{
									OFFSET 0.000000 0.000000 0.000000
								}
							}
						}
					}
					JOINT LeftShoulder_virtual
					{
						OFFSET 0.000000 0.000000 0.000000
						CHANNELS 3 Zrotation Yrotation Xrotation
						JOINT LeftShoulder
						{
							OFFSET 4.392200 8.824978 0.174984
							CHANNELS 3 Zrotation Yrotation Xrotation
							JOINT LeftArm
							{
								OFFSET 8.771219 -2.981674 -0.026999
								CHANNELS 3 Zrotation Yrotation Xrotation
								JOINT LeftForeArm
								{
									OFFSET 8.512804 0.000000 -0.000000
									CHANNELS 3 Zrotation Yrotation Xrotation
									JOINT LeftHand
									{
										OFFSET 18.484802 0.000000 -0.000000
										CHANNELS 3 Zrotation Yrotation Xrotation
										End Site
										{
											OFFSET 0.000000 0.000000 0.000000
										}
									}
								}
							}
						}
					}
					JOINT RightShoulder_virtual
					{
						OFFSET 0.000000 0.000000 0.000000
						CHANNELS 3 Zrotation Yrotation Xrotation
						JOINT RightShoulder
						{
							OFFSET -4.392200 8.824993 0.141379
							CHANNELS 3 Zrotation Yrotation Xrotation
							JOINT RightArm
							{
								OFFSET -8.771282 -2.981682 -0.094208
								CHANNELS 3 Zrotation Yrotation Xrotation
								JOINT RightForeArm
								{
									OFFSET -8.494598 0.000000 0.000000
									CHANNELS 3 Zrotation Yrotation Xrotation
									JOINT RightHand
									{
										OFFSET -18.483803 0.000000 0.000001
										CHANNELS 3 Zrotation Yrotation Xrotation
										End Site
										{
											OFFSET 0.000000 0.000000 0.000000
										}
									}
								}
							}
						}
					}
				}
			}
		}
	}
}
MOTION
Frames: 10
Frame Time: 0.033333
-3.917182 36.313221 -23.307388 179.789458 -6.397192 -179.471184 -1.640074 -1.491029 14.900070 1.930234 -3.665610 -15.720083 2.990628 3.516769 16.620210 -4.364406 -1.613958 5.319778 0.000000 0.000000 0.000000 5.527632 -0.691911 14.795214 -3.425320 -1.067172 -12.605836 -4.896535 1.371453 17.946979 9.784134 1.239818 3.882212 0.000000 0.000000 0.000000 1.841758 1.546232 1.055972 -0.588861 -2.642408 -13.349208 -0.321958 -2.937996 7.935946 0.026044 0.028361 0.012192 -0.548672 -0.751477 9.774459 -0.793675 4.972069 16.211162 0.000000 0.000000 0.000000 1.221168 -0.068527 6.640984 -19.780602 -9.688068 2.887112 -39.771037 -2.407080 14.772127 1.522044 -42.402689 4.080477 0.000000 0.000000 0.000000 -3.314404 1.100297 5.929264 29.474770 8.540019 6.689252 39.878691 -5.777869 17.617879 -1.903258 35.279450 -1.368901 0.000000 0.000000 0.000000 
-3.929367 36.305679 -23.335726 179.559403 -6.110063 -179.307219 -2.084085 -1.257809 15.092001 1.968769 -3.447290 -15.414545 3.062007 3.249112 16.747122 -4.664903 -1.686444 5.416423 0.000000 0.000000 0.000000 5.700237 -1.066647 14.928758 -3.405452 -1.333520 -12.320905 -5.179910 0.858041 18.060531 9.194924 0.721428 3.917701 0.000000 0.000000 0.000000 1.732452 1.549318 1.080557 -0.669795 -2.651959 -13.437691 -0.327778 -2.845919 7.952726 0.010442 0.082444 0.101780 -0.473638 -0.787761 9.844426 -0.760244 4.899400 16.248137 0.000000 0.000000 0.000000 1.319062 -0.067161 6.651773 -19.837282 -9.527066 3.062610 -40.391348 -0.979843 16.286494 1.699193 -41.954802 3.929732 0.000000 0.000000 0.000000 -3.227815 1.069662 6.067212 29.477730 8.324115 6.636593 40.174664 -6.902619 17.411756 -1.916757 34.452929 -1.310222 0.000000 0.000000 0.000000 
-3.949222 36.297169 -23.403585 179.589798 -6.027675 -179.314637 -2.030934 -1.265802 15.143866 1.858662 -3.473633 -15.297590 3.109567 3.232677 16.742698 -4.594177 -1.651077 5.391237 0.000000 0.000000 0.000000 5.730388 -1.119281 14.948392 -3.429565 -1.236186 -12.229229 -5.204916 0.917409 18.075057 9.236870 0.646243 3.822652 0.000000 0.000000 0.000000 1.789863 1.524428 1.190779 -0.592926 -2.674956 -13.353123 -0.280293 -2.806646 7.938859 0.034805 0.068611 0.064996 -0.528589 -0.657446 10.018834 -0.769824 4.746491 16.205322 0.000000 0.000000 0.000000 1.324882 0.134354 6.795310 -19.608162 -9.508414 3.019827 -41.287913 1.615188 18.042059 1.595305 -41.047675 4.052532 0.000000 0.000000 0.000000 -3.247670 1.248642 6.183620 29.322702 7.767272 6.596915 40.744954 -8.812405 16.597609 -2.086530 33.372994 -1.431697 0.000000 0.000000 0.000000 
-3.962798 36.288422 -23.490042 179.559403 -6.012173 -179.295785 -2.041593 -1.244341 15.253979 1.787965 -3.486756 -15.244726 3.161563 3.172702 16.707831 -4.558466 -1.638988 5.400943 0.000000 0.000000 0.000000 5.726518 -1.137694 15.043954 -3.494153 -1.053395 -12.194715 -5.226807 0.953396 18.135477 9.251048 0.466145 3.731265 0.000000 0.000000 0.000000 1.791059 1.558530 1.284676 -0.516596 -2.658458 -13.256232 -0.251848 -2.733641 7.891844 0.046696 0.069383 0.081334 -0.498459 -0.640436 10.017908 -0.771858 4.586151 15.949678 0.000000 0.000000 0.000000 1.349114 0.187636 6.804000 -19.239057 -9.566211 3.098825 -42.195382 4.773608 19.705847 1.799902 -39.695277 3.837027 0.000000 0.000000 0.000000 -3.239570 1.296373 6.227615 28.957082 7.134047 6.532746 41.567859 -11.098879 15.318757 -2.336705 32.222749 -1.697620 0.000000 0.000000 0.000000 
-3.972468 36.284248 -23.561001 179.653673 -6.018230 -179.279502 -1.911148 -1.212246 15.417106 1.703752 -3.684666 -15.282695 3.255146 3.082464 16.623545 -4.391135 -1.637403 5.434231 0.000000 0.000000 0.000000 5.870390 -1.124248 15.192118 -3.528566 -0.879137 -12.253843 -5.225900 1.004964 18.192195 9.266461 0.266348 3.643947 0.000000 0.000000 0.000000 1.897468 1.559433 1.334212 -0.394079 -2.615348 -12.991660 -0.255371 -2.542704 7.859424 0.013421 0.117834 0.013159 -0.497551 -0.596659 9.896444 -0.872296 4.354229 15.498763 0.000000 0.000000 0.000000 1.377017 0.089516 6.802522 -18.727945 -9.670745 3.093608 -43.115316 8.231899 20.539844 2.112638 -38.057230 3.487082 0.000000 0.000000 0.000000 -3.221253 1.321657 6.227030 28.481201 6.337566 6.516817 42.478435 -13.476658 13.827412 -2.678649 31.049743 -2.090300 0.000000 0.000000 0.000000 
-3.970725 36.292328 -23.598427 179.573801 -5.849540 -179.270309 -2.042738 -1.174632 15.615223 1.780004 -3.635479 -15.374563 3.235653 3.274464 16.577349 -4.493044 -1.544733 5.463655 0.000000 0.000000 0.000000 5.864683 -1.121452 15.349619 -3.630727 -0.757725 -12.419781 -5.289665 1.112849 18.227389 9.337376 0.113658 3.540013 0.000000 0.000000 0.000000 1.856537 1.375497 1.499824 -0.326663 -2.606442 -12.739009 -0.246071 -2.541533 7.784782 0.033667 0.108912 0.017820 -0.506176 -0.509888 9.739189 -0.935482 4.180714 15.090374 0.000000 0.000000 0.000000 1.408073 0.357735 6.700403 -18.248993 -9.424127 3.053960 -44.079418 11.728492 19.488046 2.282779 -36.505292 3.310126 0.000000 0.000000 0.000000 -3.212244 1.501063 6.216085 27.852991 5.813279 6.375653 43.382910 -15.721511 12.144464 -2.921187 30.023466 -2.382872 0.000000 0.000000 0.000000 
-3.966295 36.306561 -23.599264 179.672907 -5.604639 -179.298586 -1.976539 -1.266982 15.809279 1.635855 -3.531370 -15.460678 3.413789 3.070981 16.566245 -4.208825 -1.577500 5.523639 0.000000 0.000000 0.000000 6.010242 -1.226517 15.481503 -3.723210 -0.587882 -12.683170 -5.260622 1.234587 18.254266 9.418225 -0.075351 3.486168 0.000000 0.000000 0.000000 1.949343 1.527391 1.916064 -0.247108 -2.522034 -12.653696 -0.225837 -2.501661 7.602824 0.008730 0.087255 0.145228 -0.491655 -0.469502 9.701281 -1.080438 3.999681 14.729523 0.000000 0.000000 0.000000 1.440107 0.312926 6.657871 -17.816361 -9.102267 2.985617 -45.423705 15.470235 16.130156 2.562194 -35.323430 3.013675 0.000000 0.000000 0.000000 -3.178681 1.457516 6.082636 27.238180 5.089511 6.317927 44.151770 -17.730836 10.649626 -3.177386 29.268050 -2.657273 0.000000 0.000000 0.000000 
-3.946132 36.326862 -23.555099 179.611681 -5.285442 -179.304760 -2.144275 -1.338978 15.938127 1.706738 -3.294037 -15.607071 3.393746 3.216410 16.590142 -4.279557 -1.577858 5.530787 0.000000 0.000000 0.000000 5.995185 -1.305950 15.588725 -3.822403 -0.533431 -13.041049 -5.283779 1.401518 18.288976 9.553287 -0.157470 3.462835 0.000000 0.000000 0.000000 1.872577 1.303173 2.192060 -0.244281 -2.419145 -12.353367 -0.150789 -2.387689 7.644967 0.069561 0.147326 0.026102 -0.460953 -0.372496 9.462641 -1.233577 3.904182 14.140752 0.000000 0.000000 0.000000 1.435553 0.386950 6.666896 -17.489691 -8.389837 2.863508 -47.210886 18.902147 10.374865 2.944232 -34.155857 2.625096 0.000000 0.000000 0.000000 -3.162538 1.542684 6.045058 26.639768 4.574161 6.261062 44.637093 -19.398171 9.506349 -3.347070 28.705639 -2.782912 0.000000 0.000000 0.000000 
-3.914834 36.346966 -23.453850 179.587735 -4.970088 -179.347517 -2.201107 -1.480228 16.039407 1.598618 -3.051326 -15.747951 3.505307 2.940902 16.636577 -3.916652 -1.614233 5.596762 0.000000 0.000000 0.000000 5.977529 -1.444064 15.686204 -3.868627 -0.455111 -13.477083 -5.238955 1.516312 18.264505 9.687605 -0.266903 3.445309 0.000000 0.000000 0.000000 1.839593 1.356557 2.592417 -0.327291 -2.351819 -11.990175 -0.021645 -2.440906 7.445052 0.065211 0.057355 0.102333 -0.419674 -0.344485 9.454017 -1.460147 3.813328 13.797757 0.000000 0.000000 0.000000 1.479743 0.379889 6.600993 -17.192991 -7.378521 2.656997 -49.376476 21.797519 2.186276 3.166911 -33.154401 2.385771 0.000000 0.000000 0.000000 -3.134757 1.571770 5.912030 26.144200 4.153075 6.210533 44.847169 -20.589638 8.480043 -3.566948 28.609219 -3.021603 0.000000 0.000000 0.000000 
-3.876420 36.365116 -23.276892 179.765989 -4.760290 -179.397883 -2.051797 -1.640551 16.077427 1.654099 -3.014316 -15.983640 3.381025 3.013372 16.630377 -3.682079 -1.599298 5.529252 0.000000 0.000000 0.000000 6.126192 -1.555788 15.757501 -3.849988 -0.471132 -13.942072 -5.204685 1.705972 18.201454 9.753941 -0.320454 3.528027 0.000000 0.000000 0.000000 1.967772 1.357486 3.023879 -0.301451 -2.362391 -11.643066 -0.019966 -2.541386 7.405976 0.028917 -0.042755 0.065431 -0.381400 -0.312488 9.318144 -1.687267 3.806036 13.326092 0.000000 0.000000 0.000000 1.567979 0.541500 6.488070 -16.929898 -6.425872 2.380397 -51.633232 23.682972 -6.389167 3.568140 -32.142252 1.966599 0.000000 0.000000 0.000000 -3.062113 1.667241 5.896023 25.857874 3.945300 6.158892 44.810201 -21.250057 7.485113 -3.576083 28.756210 -2.944752 0.000000 0.000000 0.000000 
